REM GENRE Pop
REM DATE 2011
REM DISCID 59063607
REM COMMENT ExactAudioCopy v0.99pb5
PERFORMER "ギルティクラウン ED"
TITLE "Departures ～あなたにおくるアイの歌～"

FILE "EGOIST - Departures ～あなたにおくるアイの歌～.flac" WAVE
  TRACK 01 AUDIO
    TITLE "Departures ~あなたにおくるアイの歌~"
    PERFORMER "EGOIST"
    INDEX 01 00:00:00
  TRACK 02 AUDIO
    TITLE "エウテルペ"
    PERFORMER "EGOIST"
    INDEX 01 04:15:44
  TRACK 03 AUDIO
    TITLE "Departures ~あなたにおくるアイの歌~ (TV Edit)"
    PERFORMER "EGOIST"
    INDEX 01 08:04:33
  TRACK 04 AUDIO
    TITLE "Departures ~あなたにおくるアイの歌~ -BOOM BOOM SATELLITES Remix- - BOOM BOOM SATELLITES"
    PERFORMER "EGOIST"
    INDEX 01 09:39:58
  TRACK 05 AUDIO
    TITLE "Departures ~あなたにおくるアイの歌~ -Instrumental-"
    PERFORMER "EGOIST"
    INDEX 01 16:50:72
  TRACK 06 AUDIO
    TITLE "エウテルペ -Instrumental-"
    PERFORMER "EGOIST"
    INDEX 01 21:05:65
  TRACK 07 AUDIO
    TITLE "Departures ~あなたにおくるアイの歌~ (TV Edit) -Instrumental-"
    PERFORMER "EGOIST"
    INDEX 01 24:55:13
